<?xml version="1.0" encoding="UTF-8" standalone="no"?>
<!-- Generator: Adobe Illustrator 15.1.0, SVG Export Plug-In . SVG Version: 6.00 Build 0)  -->

<svg
   xmlns:dc="http://purl.org/dc/elements/1.1/"
   xmlns:cc="http://creativecommons.org/ns#"
   xmlns:rdf="http://www.w3.org/1999/02/22-rdf-syntax-ns#"
   xmlns:svg="http://www.w3.org/2000/svg"
   xmlns="http://www.w3.org/2000/svg"
   xmlns:xlink="http://www.w3.org/1999/xlink"
   xmlns:sodipodi="http://sodipodi.sourceforge.net/DTD/sodipodi-0.dtd"
   xmlns:inkscape="http://www.inkscape.org/namespaces/inkscape"
   version="1.1"
   id="Layer_1"
   x="0px"
   y="0px"
   width="512px"
   height="396.801px"
   viewBox="-404.604 -156.784 512 396.801"
   enable-background="new -404.604 -156.784 512 396.801"
   xml:space="preserve"
   inkscape:version="0.48.2 r9819"
   sodipodi:docname="pipp-white-logo.svg"><metadata
   id="metadata15"><rdf:RDF><cc:Work
       rdf:about=""><dc:format>image/svg+xml</dc:format><dc:type
         rdf:resource="http://purl.org/dc/dcmitype/StillImage" /></cc:Work></rdf:RDF></metadata><defs
   id="defs13"><linearGradient
     inkscape:collect="always"
     id="linearGradient3760"><stop
       style="stop-color:#000000;stop-opacity:1;"
       offset="0"
       id="stop3762" /><stop
       style="stop-color:#000000;stop-opacity:0;"
       offset="1"
       id="stop3764" /></linearGradient><linearGradient
     inkscape:collect="always"
     xlink:href="#linearGradient3760"
     id="linearGradient3766"
     x1="-665.623"
     y1="-149.7595"
     x2="106.152"
     y2="-149.7595"
     gradientUnits="userSpaceOnUse" /></defs><sodipodi:namedview
   pagecolor="#ffffff"
   bordercolor="#666666"
   borderopacity="1"
   objecttolerance="10"
   gridtolerance="10"
   guidetolerance="10"
   inkscape:pageopacity="0"
   inkscape:pageshadow="2"
   inkscape:window-width="1867"
   inkscape:window-height="1143"
   id="namedview11"
   showgrid="false"
   inkscape:zoom="0.59475657"
   inkscape:cx="-44.963466"
   inkscape:cy="198.4005"
   inkscape:window-x="0"
   inkscape:window-y="0"
   inkscape:window-maximized="0"
   inkscape:current-layer="Layer_1" />
<g
   opacity="0.3"
   id="g3"
   style="fill:#446688;fill-opacity:1;opacity:0.2">
	<g
   id="g5"
   style="fill:#446688;fill-opacity:1">
		<path
   fill="#FFFFFF"
   d="M-279.72-535.704c-213.095,0-385.903,172.84-385.903,386.008c0,213.104,172.809,385.881,385.903,385.881    c213.168,0,385.872-172.777,385.872-385.881C106.151-362.864-66.552-535.704-279.72-535.704z M-229.091,149.837    c-172.513,0-312.356-135.483-312.356-302.614c0-167.031,139.848-302.554,312.356-302.554    c172.599,0,312.561,135.522,312.561,302.554C83.47,14.363-56.488,149.837-229.091,149.837z"
   id="path7"
   style="fill:#446688;fill-opacity:1" />
		<path
   fill="#FFFFFF"
   d="M-169.72-376.794c-129.331,0-234.306,101.56-234.306,226.871c0,125.325,104.975,226.885,234.306,226.885    c129.463,0,234.475-101.56,234.475-226.885C64.759-275.229-40.252-376.794-169.72-376.794z M-130.221,37.599    c-101.911,0-184.563-82.653-184.563-184.509c0-101.911,82.648-184.5,184.563-184.5c101.879,0,184.446,82.589,184.446,184.5    C54.233-45.049-28.343,37.599-130.221,37.599z"
   id="path9"
   style="fill:#446688;fill-opacity:1" />
	</g>
</g>
</svg>